<?xml version="1.0" encoding="UTF-8"?>
<svg id="Layer_1" data-name="Layer 1" xmlns="http://www.w3.org/2000/svg" viewBox="0 0 334.98 87.54">
  <defs>
    <style>
      .cls-1, .cls-2 {
        fill: #fff;
      }

      .cls-2 {
        stroke: #fff;
        stroke-miterlimit: 10;
        stroke-width: .16px;
      }
    </style>
  </defs>
  <path class="cls-1" d="m66.04,29.18l-2.63-8.56s-.4-1.15.47-2.76,2.22-7.88-5.66-12.33C58.22,5.53,50.27.07,36.99,0S15.18,3.94,11.25,11.32c-4.45,8.36-1.84,18.48,5.93,23.45,7.86,5.03,13.56,6.71,23.59,10.78,12.27,4.99,24.67,14.22,17.61,27.05,0,0,8.94-3.94,12.67-14.38,3.95-11.05-5.84-19.95-12.67-23.09-6.83-3.14-24.08-8.18-29.47-12.49-5.39-4.31-4.82-10.8,1.95-13.34,7.3-2.74,21.23,1.89,35.18,19.88Z"/>
  <path class="cls-1" d="m1.32,27.77s.09,12.85,17.79,20.94c17.7,8.09,28.75,8.9,30.1,18.96,1.35,10.06-14.2,13.03-26.51,7.01C10.4,68.65-4.56,54.99,1.32,27.77Z"/>
  <g>
    <path class="cls-2" d="m132.22,21.01v45.45h-3.23v-11.31c-1.89,3.84-4.71,6.87-8.48,9.09-3.77,2.22-7.81,3.33-12.12,3.33-6.6,0-12.25-2.34-16.97-7.02-4.71-4.68-7.07-10.28-7.07-16.81s2.36-12.13,7.07-16.82c4.71-4.68,10.37-7.02,16.97-7.02,4.31,0,8.43,1.15,12.37,3.43,3.94,2.29,6.68,5.32,8.23,9.09v-11.41h3.23Zm-44.64,22.82c0,5.66,2.07,10.55,6.21,14.69s9.05,6.21,14.74,6.21,10.55-2.07,14.59-6.21,6.06-9.05,6.06-14.74-2.04-10.62-6.11-14.8c-4.07-4.17-8.94-6.26-14.59-6.26s-10.55,2.1-14.69,6.31c-4.14,4.21-6.21,9.14-6.21,14.79Z"/>
    <path class="cls-2" d="m147.57,66.45h-3.23V21.01h3.23v9.19c3.43-6.87,9.29-10.3,17.57-10.3,5.65,0,10.4,1.95,14.24,5.86,3.84,3.91,5.76,8.65,5.76,14.24v26.46h-3.23v-26.46c0-4.65-1.63-8.68-4.9-12.12s-7.22-5.15-11.87-5.15-8.74,1.72-12.27,5.15c-3.53,3.43-5.3,7.47-5.3,12.12v26.46Z"/>
    <path class="cls-2" d="m239.47,21.01h3.23v41.2c0,7.81-2.16,13.97-6.46,18.48-4.31,4.51-9.96,6.77-16.97,6.77-3.84,0-7.57-.88-11.21-2.63-3.64-1.75-6.46-4.04-8.48-6.87v-4.65c1.75,3.23,4.49,5.92,8.23,8.08,3.74,2.15,7.56,3.23,11.46,3.23,5.92,0,10.77-2,14.54-6.01,3.77-4.01,5.66-9.48,5.66-16.41v-6.77c-1.82,3.7-4.68,6.67-8.58,8.89-3.91,2.22-7.95,3.33-12.12,3.33-6.6,0-12.25-2.34-16.97-7.02-4.71-4.68-7.07-10.28-7.07-16.82s2.36-12.13,7.07-16.81c4.71-4.68,10.37-7.02,16.97-7.02,4.38,0,8.47,1.1,12.27,3.28,3.8,2.19,6.62,5.2,8.43,9.04v-11.31Zm-41.51,22.82c0,5.72,2.07,10.65,6.21,14.79s9.05,6.21,14.74,6.21,10.55-2.07,14.59-6.21c4.04-4.14,6.06-9.07,6.06-14.79s-2.02-10.65-6.06-14.79c-4.04-4.14-8.91-6.21-14.59-6.21s-10.6,2.07-14.74,6.21-6.21,9.07-6.21,14.79Z"/>
    <path class="cls-2" d="m264.71,22.62c-1.75,0-3.3.57-4.65,1.72-1.35,1.15-2.02,2.56-2.02,4.24s.76,3.23,2.27,4.65,3.33,2.71,5.45,3.89c2.12,1.18,4.26,2.44,6.41,3.79,2.15,1.35,3.99,3.06,5.5,5.15,1.51,2.09,2.27,4.48,2.27,7.17,0,3.97-1.5,7.36-4.49,10.15-3,2.79-6.62,4.19-10.86,4.19-2.69,0-5.2-.59-7.52-1.77-2.32-1.18-4.02-2.74-5.1-4.7v-4.85c2.56,5.66,6.67,8.48,12.32,8.48,3.5,0,6.45-1.08,8.84-3.23,2.39-2.15,3.58-4.56,3.58-7.22s-.76-4.9-2.27-6.72c-1.51-1.82-3.35-3.37-5.5-4.65-2.16-1.28-4.29-2.54-6.41-3.79-2.12-1.24-3.94-2.76-5.45-4.54-1.52-1.78-2.27-3.87-2.27-6.26s.96-4.41,2.88-6.06c1.92-1.65,4.39-2.47,7.42-2.47s5.62,1.18,7.78,3.53v4.14c-2.16-3.23-4.88-4.85-8.18-4.85Z"/>
    <path class="cls-2" d="m334.9,21.01v45.45h-3.23v-11.31c-1.89,3.84-4.71,6.87-8.48,9.09-3.77,2.22-7.81,3.33-12.12,3.33-6.6,0-12.25-2.34-16.97-7.02-4.71-4.68-7.07-10.28-7.07-16.81s2.36-12.13,7.07-16.82c4.71-4.68,10.37-7.02,16.97-7.02,4.31,0,8.43,1.15,12.37,3.43,3.94,2.29,6.68,5.32,8.23,9.09v-11.41h3.23Zm-44.64,22.82c0,5.66,2.07,10.55,6.21,14.69s9.05,6.21,14.74,6.21,10.55-2.07,14.59-6.21c4.04-4.14,6.06-9.05,6.06-14.74s-2.04-10.62-6.11-14.8c-4.07-4.17-8.94-6.26-14.59-6.26s-10.55,2.1-14.69,6.31c-4.14,4.21-6.21,9.14-6.21,14.79Z"/>
  </g>
</svg>