<?xml version="1.0" encoding="UTF-8"?>
<svg id="Layer_1" data-name="Layer 1" xmlns="http://www.w3.org/2000/svg" xmlns:xlink="http://www.w3.org/1999/xlink" viewBox="0 0 354.92 383.58">
  <defs>
    <style>
      .cls-1 {
        fill: url(#linear-gradient-2);
      }

      .cls-2 {
        fill: url(#linear-gradient);
      }
    </style>
    <linearGradient id="linear-gradient" x1="54.24" y1="57.9" x2="377.44" y2="244.5" gradientUnits="userSpaceOnUse">
      <stop offset="0" stop-color="#4fb3e0"/>
      <stop offset="1" stop-color="#a5def8"/>
    </linearGradient>
    <linearGradient id="linear-gradient-2" x1="-30.53" y1="201.11" x2="239.01" y2="356.73" xlink:href="#linear-gradient"/>
  </defs>
  <path class="cls-2" d="m325.72,143.93l-12.96-42.21s-1.99-5.65,2.33-13.63c4.32-7.98,10.97-38.89-27.92-60.83C287.16,27.26,247.94.34,182.46,0,116.98-.33,74.86,19.45,55.49,55.85c-21.94,41.22-9.06,91.15,29.25,115.67,38.78,24.82,66.88,33.07,116.34,53.18,60.49,24.6,121.65,70.13,86.86,133.4,0,0,44.08-19.45,62.49-70.91,19.5-54.51-28.81-98.39-62.49-113.9-33.68-15.51-118.77-40.33-145.36-61.6-26.59-21.27-23.76-53.27,9.64-65.81,36.01-13.52,104.7,9.31,173.51,98.05Z"/>
  <path class="cls-1" d="m6.52,136.95s.44,63.37,87.75,103.26c87.31,39.89,141.82,43.87,148.47,93.51,6.65,49.64-70.02,64.26-130.74,34.57C51.28,338.59-22.51,271.23,6.52,136.95Z"/>
</svg>