<?xml version="1.0" standalone="no"?>
<svg xmlns:xlink="http://www.w3.org/1999/xlink" id="wave" style="transform:rotate(0deg); transition: 0.3s" viewBox="0 0 1440 490" version="1.1" xmlns="http://www.w3.org/2000/svg"><defs><linearGradient id="sw-gradient-0" x1="0" x2="0" y1="1" y2="0"><stop stop-color="rgba(69, 199, 239, 1)" offset="0%"/><stop stop-color="rgba(69, 199, 239, 1)" offset="100%"/></linearGradient></defs><path style="transform:translate(0, 0px); opacity:1" fill="url(#sw-gradient-0)" d="M0,294L120,318.5C240,343,480,392,720,367.5C960,343,1200,245,1440,196C1680,147,1920,147,2160,138.8C2400,131,2640,114,2880,106.2C3120,98,3360,98,3600,138.8C3840,180,4080,261,4320,294C4560,327,4800,310,5040,302.2C5280,294,5520,294,5760,285.8C6000,278,6240,261,6480,212.3C6720,163,6960,82,7200,40.8C7440,0,7680,0,7920,0C8160,0,8400,0,8640,73.5C8880,147,9120,294,9360,310.3C9600,327,9840,212,10080,155.2C10320,98,10560,98,10800,106.2C11040,114,11280,131,11520,179.7C11760,229,12000,310,12240,302.2C12480,294,12720,196,12960,147C13200,98,13440,98,13680,147C13920,196,14160,294,14400,343C14640,392,14880,392,15120,343C15360,294,15600,196,15840,147C16080,98,16320,98,16560,89.8C16800,82,17040,65,17160,57.2L17280,49L17280,490L17160,490C17040,490,16800,490,16560,490C16320,490,16080,490,15840,490C15600,490,15360,490,15120,490C14880,490,14640,490,14400,490C14160,490,13920,490,13680,490C13440,490,13200,490,12960,490C12720,490,12480,490,12240,490C12000,490,11760,490,11520,490C11280,490,11040,490,10800,490C10560,490,10320,490,10080,490C9840,490,9600,490,9360,490C9120,490,8880,490,8640,490C8400,490,8160,490,7920,490C7680,490,7440,490,7200,490C6960,490,6720,490,6480,490C6240,490,6000,490,5760,490C5520,490,5280,490,5040,490C4800,490,4560,490,4320,490C4080,490,3840,490,3600,490C3360,490,3120,490,2880,490C2640,490,2400,490,2160,490C1920,490,1680,490,1440,490C1200,490,960,490,720,490C480,490,240,490,120,490L0,490Z"/><defs><linearGradient id="sw-gradient-1" x1="0" x2="0" y1="1" y2="0"><stop stop-color="rgba(51, 49, 51, 0.36)" offset="0%"/><stop stop-color="rgba(51, 49, 51, 0.46)" offset="100%"/></linearGradient></defs><path style="transform:translate(0, 50px); opacity:0.9" fill="url(#sw-gradient-1)" d="M0,392L120,351.2C240,310,480,229,720,228.7C960,229,1200,310,1440,326.7C1680,343,1920,294,2160,236.8C2400,180,2640,114,2880,73.5C3120,33,3360,16,3600,24.5C3840,33,4080,65,4320,122.5C4560,180,4800,261,5040,253.2C5280,245,5520,147,5760,138.8C6000,131,6240,212,6480,245C6720,278,6960,261,7200,245C7440,229,7680,212,7920,204.2C8160,196,8400,196,8640,171.5C8880,147,9120,98,9360,81.7C9600,65,9840,82,10080,89.8C10320,98,10560,98,10800,89.8C11040,82,11280,65,11520,122.5C11760,180,12000,310,12240,343C12480,376,12720,310,12960,294C13200,278,13440,310,13680,343C13920,376,14160,408,14400,383.8C14640,359,14880,278,15120,269.5C15360,261,15600,327,15840,359.3C16080,392,16320,392,16560,343C16800,294,17040,196,17160,147L17280,98L17280,490L17160,490C17040,490,16800,490,16560,490C16320,490,16080,490,15840,490C15600,490,15360,490,15120,490C14880,490,14640,490,14400,490C14160,490,13920,490,13680,490C13440,490,13200,490,12960,490C12720,490,12480,490,12240,490C12000,490,11760,490,11520,490C11280,490,11040,490,10800,490C10560,490,10320,490,10080,490C9840,490,9600,490,9360,490C9120,490,8880,490,8640,490C8400,490,8160,490,7920,490C7680,490,7440,490,7200,490C6960,490,6720,490,6480,490C6240,490,6000,490,5760,490C5520,490,5280,490,5040,490C4800,490,4560,490,4320,490C4080,490,3840,490,3600,490C3360,490,3120,490,2880,490C2640,490,2400,490,2160,490C1920,490,1680,490,1440,490C1200,490,960,490,720,490C480,490,240,490,120,490L0,490Z"/></svg>