<?xml version="1.0" encoding="UTF-8"?>
<svg id="Layer_1" data-name="Layer 1" xmlns="http://www.w3.org/2000/svg" viewBox="0 0 142.12 127.94">
  <defs>
    <style>
      .cls-1 {
        fill: #3F7181;
      }
    </style>
  </defs>
  <path class="cls-1" d="m68.96,87.48l-3.52-52.94h11.24l-3.36,52.94h-4.35Zm-3.09,16.74v-10.13h10.29v10.13h-10.29Z"/>
  <path class="cls-1" d="m123.75,127.94H18.36c-6.63,0-12.56-3.43-15.88-9.17-3.31-5.74-3.31-12.6,0-18.34L55.18,9.17C58.49,3.43,64.43,0,71.06,0c6.63,0,12.57,3.43,15.88,9.17l52.69,91.27c3.31,5.74,3.31,12.6,0,18.34-3.31,5.74-9.25,9.17-15.88,9.17ZM71.06,6.04c-4.44,0-8.42,2.3-10.65,6.15L7.72,103.46c-2.22,3.85-2.22,8.44,0,12.29,2.22,3.85,6.2,6.15,10.65,6.15h105.39c4.44,0,8.42-2.3,10.65-6.15,2.22-3.85,2.22-8.44,0-12.29L81.7,12.19c-2.22-3.85-6.2-6.15-10.65-6.15Z"/>
</svg>