<?xml version="1.0" standalone="no"?>
<svg xmlns:xlink="http://www.w3.org/1999/xlink" id="wave" style="transform:rotate(0deg); transition: 0.3s" viewBox="0 0 1440 490" version="1.1" xmlns="http://www.w3.org/2000/svg"><defs><linearGradient id="sw-gradient-0" x1="0" x2="0" y1="1" y2="0"><stop stop-color="rgba(51, 49, 51, 0.2784313725490196)" offset="0%"/><stop stop-color="rgba(51, 49, 51, 0.2784313725490196)" offset="100%"/></linearGradient></defs><path style="transform:translate(0, 0px); opacity:1" fill="url(#sw-gradient-0)" d="M0,0L120,65.3C240,131,480,261,720,294C960,327,1200,261,1440,253.2C1680,245,1920,294,2160,326.7C2400,359,2640,376,2880,326.7C3120,278,3360,163,3600,106.2C3840,49,4080,49,4320,98C4560,147,4800,245,5040,285.8C5280,327,5520,310,5760,277.7C6000,245,6240,196,6480,187.8C6720,180,6960,212,7200,236.8C7440,261,7680,278,7920,261.3C8160,245,8400,196,8640,187.8C8880,180,9120,212,9360,228.7C9600,245,9840,245,10080,236.8C10320,229,10560,212,10800,187.8C11040,163,11280,131,11520,138.8C11760,147,12000,196,12240,236.8C12480,278,12720,310,12960,310.3C13200,310,13440,278,13680,253.2C13920,229,14160,212,14400,187.8C14640,163,14880,131,15120,122.5C15360,114,15600,131,15840,187.8C16080,245,16320,343,16560,375.7C16800,408,17040,376,17160,359.3L17280,343L17280,490L17160,490C17040,490,16800,490,16560,490C16320,490,16080,490,15840,490C15600,490,15360,490,15120,490C14880,490,14640,490,14400,490C14160,490,13920,490,13680,490C13440,490,13200,490,12960,490C12720,490,12480,490,12240,490C12000,490,11760,490,11520,490C11280,490,11040,490,10800,490C10560,490,10320,490,10080,490C9840,490,9600,490,9360,490C9120,490,8880,490,8640,490C8400,490,8160,490,7920,490C7680,490,7440,490,7200,490C6960,490,6720,490,6480,490C6240,490,6000,490,5760,490C5520,490,5280,490,5040,490C4800,490,4560,490,4320,490C4080,490,3840,490,3600,490C3360,490,3120,490,2880,490C2640,490,2400,490,2160,490C1920,490,1680,490,1440,490C1200,490,960,490,720,490C480,490,240,490,120,490L0,490Z"/></svg>