<svg width="6400" height="198" viewBox="0 0 6400 198" xmlns="http://www.w3.org/2000/svg">
  <path d="M 0,400 L 0,150 C 157.2,107.33,314.4,64.67,483.0,78 C 651.6,91.33,831.6,160.67,993.0,182 C 1154.4,203.33,1297.2,176.67,1440.0,150 L 1440,150 C 1597.2,107.33,1754.4,64.67,1923.0,78 C 2091.6,91.33,2271.6,160.67,2433.0,182 C 2594.4,203.33,2737.2,176.67,2880.0,150 L 2880,150 C 3037.2,107.33,3194.4,64.67,3363.0,78 C 3531.6,91.33,3711.6,160.67,3873.0,182 C 4034.4,203.33,4177.2,176.67,4320.0,150 L 4320,150 C 4477.2,107.33,4634.4,64.67,4803.0,78 C 4971.6,91.33,5151.6,160.67,5313.0,182 C 5474.4,203.33,5617.2,176.67,5760.0,150 L 5760,400 L 0,400 Z" fill="#45c7ef" stroke="none" fill-opacity="1"/>
</svg>
